<svg xmlns="http://www.w3.org/2000/svg" width="288" height="32" viewBox="0 0 288 32" shape-rendering="crispEdges">
  <rect width="288" height="32" fill="#fbfaf7"/>
  <defs>
    <style>
      .k{fill:#2b2724}.w{fill:#fff}.t{fill:#1f9e9a}.g{fill:#76a84f}.r{fill:#e25b45}.y{fill:#e8ae2e}.v{fill:#725ac1}.m{fill:#6e6760}.b{fill:#4f86d9}
    </style>
  </defs>

  <!-- lessonScroll -->
  <g transform="translate(0 0)">
    <rect class="w" x="9" y="6" width="14" height="20"/><rect class="k" x="8" y="5" width="16" height="2"/><rect class="k" x="8" y="25" width="16" height="2"/><rect class="k" x="7" y="7" width="2" height="18"/><rect class="k" x="23" y="7" width="2" height="18"/>
    <rect class="m" x="5" y="4" width="4" height="24"/><rect class="m" x="23" y="4" width="4" height="24"/><rect class="k" x="4" y="3" width="6" height="2"/><rect class="k" x="4" y="27" width="6" height="2"/><rect class="k" x="22" y="3" width="6" height="2"/><rect class="k" x="22" y="27" width="6" height="2"/>
    <rect class="m" x="11" y="10" width="10" height="2"/><rect class="m" x="11" y="14" width="10" height="2"/><rect class="m" x="11" y="18" width="6" height="2"/>
    <rect class="w" x="10" y="7" width="2" height="2"/>
  </g>

  <!-- lessonBook -->
  <g transform="translate(32 0)">
    <rect class="t" x="8" y="5" width="16" height="22"/><rect class="k" x="6" y="3" width="20" height="2"/><rect class="k" x="6" y="27" width="20" height="2"/><rect class="k" x="6" y="5" width="2" height="22"/><rect class="k" x="24" y="5" width="2" height="22"/>
    <rect class="y" x="8" y="5" width="3" height="22"/><rect class="k" x="11" y="5" width="2" height="22"/>
    <rect class="w" x="24" y="6" width="3" height="20"/><rect class="k" x="27" y="6" width="2" height="20"/>
    <rect class="w" x="15" y="9" width="2" height="2"/>
    <rect class="m" x="8" y="27" width="20" height="2"/>
  </g>

  <!-- newLessonStamp -->
  <g transform="translate(64 0)">
    <rect class="r" x="9" y="9" width="14" height="14"/><rect class="r" x="11" y="7" width="10" height="2"/><rect class="r" x="11" y="23" width="10" height="2"/><rect class="r" x="7" y="11" width="2" height="10"/><rect class="r" x="23" y="11" width="2" height="10"/>
    <rect class="k" x="10" y="6" width="12" height="2"/><rect class="k" x="9" y="7" width="2" height="2"/><rect class="k" x="21" y="7" width="2" height="2"/>
    <rect class="k" x="6" y="10" width="2" height="2"/><rect class="k" x="24" y="10" width="2" height="2"/><rect class="k" x="6" y="12" width="2" height="8"/><rect class="k" x="24" y="12" width="2" height="8"/>
    <rect class="k" x="6" y="20" width="2" height="2"/><rect class="k" x="24" y="20" width="2" height="2"/><rect class="k" x="9" y="22" width="2" height="2"/><rect class="k" x="21" y="22" width="2" height="2"/><rect class="k" x="10" y="24" width="12" height="2"/>
    <rect class="k" x="11" y="14" width="10" height="4"/>
    <rect class="w" x="11" y="9" width="2" height="2"/>
    <rect class="m" x="11" y="25" width="11" height="2"/>
  </g>

  <!-- libraryEmpty -->
  <g transform="translate(96 0)">
    <rect class="m" x="6" y="22" width="20" height="3"/><rect class="k" x="5" y="21" width="22" height="2"/><rect class="k" x="5" y="25" width="22" height="2"/>
    <rect class="k" x="5" y="6" width="2" height="15"/>
    <rect class="k" x="9" y="10" width="2" height="2"/><rect class="k" x="13" y="10" width="2" height="2"/><rect class="k" x="17" y="10" width="2" height="2"/><rect class="k" x="21" y="10" width="2" height="2"/>
    <rect class="k" x="9" y="15" width="2" height="2"/><rect class="k" x="13" y="15" width="2" height="2"/><rect class="k" x="17" y="15" width="2" height="2"/><rect class="k" x="21" y="15" width="2" height="2"/>
    <rect class="w" x="6" y="22" width="2" height="2"/>
  </g>

  <!-- libraryFew -->
  <g transform="translate(128 0)">
    <rect class="m" x="6" y="22" width="20" height="3"/><rect class="k" x="5" y="21" width="22" height="2"/><rect class="k" x="5" y="25" width="22" height="2"/>
    <rect class="t" x="9" y="9" width="5" height="12"/><rect class="k" x="8" y="8" width="7" height="2"/><rect class="k" x="8" y="9" width="2" height="12"/><rect class="k" x="14" y="9" width="2" height="12"/>
    <rect class="y" x="18" y="11" width="5" height="10"/><rect class="k" x="17" y="10" width="7" height="2"/><rect class="k" x="17" y="11" width="2" height="10"/><rect class="k" x="23" y="11" width="2" height="10"/>
    <rect class="w" x="10" y="11" width="2" height="2"/>
    <rect class="w" x="6" y="22" width="2" height="2"/>
  </g>

  <!-- libraryMany -->
  <g transform="translate(160 0)">
    <rect class="m" x="6" y="14" width="20" height="2"/><rect class="k" x="5" y="13" width="22" height="2"/><rect class="m" x="6" y="25" width="20" height="2"/><rect class="k" x="5" y="24" width="22" height="2"/><rect class="k" x="5" y="26" width="22" height="2"/>
    <rect class="t" x="7" y="5" width="3" height="8"/><rect class="k" x="6" y="5" width="2" height="8"/><rect class="y" x="11" y="5" width="3" height="8"/><rect class="k" x="10" y="5" width="2" height="8"/><rect class="g" x="15" y="5" width="3" height="8"/><rect class="k" x="14" y="5" width="2" height="8"/><rect class="v" x="19" y="5" width="3" height="8"/><rect class="k" x="18" y="5" width="2" height="8"/><rect class="k" x="22" y="5" width="2" height="8"/>
    <rect class="v" x="7" y="16" width="3" height="8"/><rect class="k" x="6" y="16" width="2" height="8"/><rect class="g" x="11" y="16" width="3" height="8"/><rect class="k" x="10" y="16" width="2" height="8"/><rect class="t" x="15" y="16" width="3" height="8"/><rect class="k" x="14" y="16" width="2" height="8"/><rect class="y" x="19" y="16" width="3" height="8"/><rect class="k" x="18" y="16" width="2" height="8"/><rect class="k" x="22" y="16" width="2" height="8"/>
    <rect class="w" x="8" y="7" width="2" height="2"/>
  </g>

  <!-- lessonApplied -->
  <g transform="translate(192 0)">
    <rect class="w" x="5" y="13" width="22" height="12"/><rect class="k" x="4" y="12" width="24" height="2"/><rect class="k" x="4" y="25" width="24" height="2"/><rect class="k" x="3" y="14" width="2" height="11"/><rect class="k" x="27" y="14" width="2" height="11"/>
    <rect class="k" x="15" y="13" width="2" height="12"/>
    <rect class="m" x="7" y="16" width="6" height="2"/><rect class="m" x="7" y="20" width="6" height="2"/><rect class="m" x="19" y="16" width="6" height="2"/><rect class="m" x="19" y="20" width="6" height="2"/>
    <rect class="g" x="18" y="6" width="3" height="3"/><rect class="g" x="21" y="9" width="3" height="3"/><rect class="g" x="24" y="3" width="4" height="3"/><rect class="k" x="17" y="5" width="2" height="5"/><rect class="k" x="20" y="8" width="2" height="2"/>
    <rect class="y" x="9" y="4" width="3" height="3"/>
    <rect class="w" x="9" y="14" width="2" height="2"/>
  </g>

  <!-- lessonPinned -->
  <g transform="translate(224 0)">
    <rect class="w" x="8" y="8" width="16" height="20"/><rect class="k" x="7" y="7" width="18" height="2"/><rect class="k" x="7" y="27" width="18" height="2"/><rect class="k" x="7" y="9" width="2" height="18"/><rect class="k" x="23" y="9" width="2" height="18"/>
    <rect class="m" x="11" y="13" width="10" height="2"/><rect class="m" x="11" y="17" width="10" height="2"/><rect class="m" x="11" y="21" width="6" height="2"/>
    <rect class="r" x="13" y="3" width="6" height="6"/><rect class="k" x="12" y="2" width="8" height="2"/><rect class="k" x="12" y="3" width="2" height="6"/><rect class="k" x="19" y="3" width="2" height="6"/><rect class="k" x="12" y="9" width="8" height="2"/>
    <rect class="k" x="15" y="11" width="2" height="3"/>
    <rect class="w" x="14" y="4" width="2" height="2"/>
    <rect class="m" x="9" y="28" width="15" height="2"/>
  </g>

</svg>
